<svg width="5761" height="1183" xmlns="http://www.w3.org/2000/svg" xmlns:xlink="http://www.w3.org/1999/xlink" xml:space="preserve" overflow="hidden"><g transform="translate(-27 -893)"><g><path d="M1390.5 1001.16C1390.5 946.121 1435.12 901.5 1490.16 901.5L5683.84 901.5C5738.88 901.5 5783.5 946.121 5783.5 1001.16L5783.5 1969.84C5783.5 2024.88 5738.88 2069.5 5683.84 2069.5L1490.16 2069.5C1435.12 2069.5 1390.5 2024.88 1390.5 1969.84Z" stroke="#042433" stroke-width="6.875" stroke-linecap="butt" stroke-linejoin="miter" stroke-miterlimit="8" stroke-opacity="1" fill="#000000" fill-rule="evenodd" fill-opacity="0.247059"/><rect x="35.4999" y="1122.5" width="479" height="231" stroke="#000000" stroke-width="6.875" stroke-linecap="butt" stroke-linejoin="miter" stroke-miterlimit="8" stroke-opacity="1" fill="#2E676B" fill-opacity="1"/><text fill="#FFFFFF" fill-opacity="1" font-family="PingFang HK,PingFang HK_MSFontService,sans-serif" font-style="normal" font-variant="normal" font-weight="400" font-stretch="normal" font-size="83" text-anchor="start" direction="ltr" writing-mode="lr-tb" unicode-bidi="normal" text-decoration="none" transform="matrix(1 0 0 1 109.36 1263)">检查权限</text><path d="M659.5 1240 953 1067.5 1246.5 1240 953 1412.5Z" stroke="#000000" stroke-width="6.875" stroke-linecap="butt" stroke-linejoin="miter" stroke-miterlimit="8" stroke-opacity="1" fill="#2E676B" fill-rule="evenodd" fill-opacity="1"/><text fill="#FFFFFF" fill-opacity="1" font-family="PingFang HK,PingFang HK_MSFontService,sans-serif" font-style="normal" font-variant="normal" font-weight="400" font-stretch="normal" font-size="83" text-anchor="start" direction="ltr" writing-mode="lr-tb" unicode-bidi="normal" text-decoration="none" transform="matrix(1 0 0 1 828.517 1265)">存活？</text><path d="M514.546 1235.06 636.166 1236.68 636.074 1243.55 514.454 1241.94ZM631.72 1226.31 659.035 1240.42 631.354 1253.8Z" fill="#000000" fill-rule="nonzero" fill-opacity="1"/><path d="M1396.5 1240 1795.5 1067.5 2194.5 1240 1795.5 1412.5Z" stroke="#000000" stroke-width="6.875" stroke-linecap="butt" stroke-linejoin="miter" stroke-miterlimit="8" stroke-opacity="1" fill="#2E676B" fill-rule="evenodd" fill-opacity="1"/><text fill="#FFFFFF" fill-opacity="1" font-family="PingFang HK,PingFang HK_MSFontService,sans-serif" font-style="normal" font-variant="normal" font-weight="400" font-stretch="normal" font-size="83" text-anchor="start" direction="ltr" writing-mode="lr-tb" unicode-bidi="normal" text-decoration="none" transform="matrix(1 0 0 1 1588.43 1265)">版本过低？</text><path d="M1246.5 1236.06 1373.53 1236.06 1373.53 1242.94 1246.5 1242.94ZM1368.95 1225.75 1396.45 1239.5 1368.95 1253.25Z" fill="#000000" fill-rule="nonzero" fill-opacity="1"/><text fill="#000000" fill-opacity="1" font-family="PingFang HK,PingFang HK_MSFontService,sans-serif" font-style="normal" font-variant="normal" font-weight="400" font-stretch="normal" font-size="83" text-anchor="start" direction="ltr" writing-mode="lr-tb" unicode-bidi="normal" text-decoration="none" transform="matrix(1 0 0 1 1278.81 1194)">是</text><path d="M2343.5 1240 2667.5 1067.5 2991.5 1240 2667.5 1412.5Z" stroke="#000000" stroke-width="6.875" stroke-linecap="butt" stroke-linejoin="miter" stroke-miterlimit="8" stroke-opacity="1" fill="#2E676B" fill-rule="evenodd" fill-opacity="1"/><text fill="#FFFFFF" fill-opacity="1" font-family="PingFang HK,PingFang HK_MSFontService,sans-serif" font-style="normal" font-variant="normal" font-weight="400" font-stretch="normal" font-size="83" text-anchor="start" direction="ltr" writing-mode="lr-tb" unicode-bidi="normal" text-decoration="none" transform="matrix(1 0 0 1 2502.35 1265)">已授权？</text><path d="M2991.5 1236.06 3117.94 1236.06 3117.93 1242.94 2991.5 1242.94ZM3113.35 1225.75 3140.85 1239.5 3113.35 1253.25Z" fill="#000000" fill-rule="nonzero" fill-opacity="1"/><text fill="#000000" fill-opacity="1" font-family="PingFang HK,PingFang HK_MSFontService,sans-serif" font-style="normal" font-variant="normal" font-weight="400" font-stretch="normal" font-size="83" text-anchor="start" direction="ltr" writing-mode="lr-tb" unicode-bidi="normal" text-decoration="none" transform="matrix(1 0 0 1 3024.15 1194)">否</text><text fill="#000000" fill-opacity="1" font-family="PingFang HK,PingFang HK_MSFontService,sans-serif" font-style="normal" font-variant="normal" font-weight="400" font-stretch="normal" font-size="83" text-anchor="start" direction="ltr" writing-mode="lr-tb" unicode-bidi="normal" text-decoration="none" transform="matrix(1 0 0 1 2226.6 1197)">否</text><path d="M2194.5 1236.06 2321.23 1236.06 2321.23 1242.94 2194.5 1242.94ZM2316.65 1225.75 2344.15 1239.5 2316.65 1253.25Z" fill="#000000" fill-rule="nonzero" fill-opacity="1"/><path d="M3141.5 1240 3465.5 1067.5 3789.5 1240 3465.5 1412.5Z" stroke="#000000" stroke-width="6.875" stroke-linecap="butt" stroke-linejoin="miter" stroke-miterlimit="8" stroke-opacity="1" fill="#2E676B" fill-rule="evenodd" fill-opacity="1"/><text fill="#FFFFFF" fill-opacity="1" font-family="PingFang HK,PingFang HK_MSFontService,sans-serif" font-style="normal" font-variant="normal" font-weight="400" font-stretch="normal" font-size="83" text-anchor="start" direction="ltr" writing-mode="lr-tb" unicode-bidi="normal" text-decoration="none" transform="matrix(1 0 0 1 3304.9 1216)">永</text><text fill="#FFFFFF" fill-opacity="1" font-family="Microsoft YaHei,Microsoft YaHei_MSFontService,sans-serif" font-style="normal" font-variant="normal" font-weight="400" font-stretch="normal" font-size="83" text-anchor="start" direction="ltr" writing-mode="lr-tb" unicode-bidi="normal" text-decoration="none" transform="matrix(1 0 0 1 3387.4 1216)">远</text><text fill="#FFFFFF" fill-opacity="1" font-family="PingFang HK,PingFang HK_MSFontService,sans-serif" font-style="normal" font-variant="normal" font-weight="400" font-stretch="normal" font-size="83" text-anchor="start" direction="ltr" writing-mode="lr-tb" unicode-bidi="normal" text-decoration="none" transform="matrix(1 0 0 1 3469.9 1216)">拒</text><text fill="#FFFFFF" fill-opacity="1" font-family="PingFang HK,PingFang HK_MSFontService,sans-serif" font-style="normal" font-variant="normal" font-weight="400" font-stretch="normal" font-size="83" text-anchor="start" direction="ltr" writing-mode="lr-tb" unicode-bidi="normal" text-decoration="none" transform="matrix(1 0 0 1 3299.74 1314)">绝授权？</text><rect x="1555.5" y="1603.5" width="480" height="231" stroke="#000000" stroke-width="6.875" stroke-linecap="butt" stroke-linejoin="miter" stroke-miterlimit="8" stroke-opacity="1" fill="#2E676B" fill-opacity="1"/><text fill="#FFFFFF" fill-opacity="1" font-family="PingFang HK,PingFang HK_MSFontService,sans-serif" font-style="normal" font-variant="normal" font-weight="400" font-stretch="normal" font-size="83" text-anchor="start" direction="ltr" writing-mode="lr-tb" unicode-bidi="normal" text-decoration="none" transform="matrix(1 0 0 1 1670.93 1744)">未授权</text><rect x="2428.5" y="1603.5" width="479" height="231" stroke="#000000" stroke-width="6.875" stroke-linecap="butt" stroke-linejoin="miter" stroke-miterlimit="8" stroke-opacity="1" fill="#2E676B" fill-opacity="1"/><text fill="#FFFFFF" fill-opacity="1" font-family="PingFang HK,PingFang HK_MSFontService,sans-serif" font-style="normal" font-variant="normal" font-weight="400" font-stretch="normal" font-size="83" text-anchor="start" direction="ltr" writing-mode="lr-tb" unicode-bidi="normal" text-decoration="none" transform="matrix(1 0 0 1 2543.6 1744)">已授权</text><path d="M3789.54 1236.06 3916.58 1237.69 3916.49 1244.56 3789.46 1242.94ZM3912.13 1227.32 3939.45 1241.42 3911.78 1254.82Z" fill="#000000" fill-rule="nonzero" fill-opacity="1"/><text fill="#000000" fill-opacity="1" font-family="PingFang HK,PingFang HK_MSFontService,sans-serif" font-style="normal" font-variant="normal" font-weight="400" font-stretch="normal" font-size="83" text-anchor="start" direction="ltr" writing-mode="lr-tb" unicode-bidi="normal" text-decoration="none" transform="matrix(1 0 0 1 3821.69 1192)">否</text><rect x="3939.5" y="1126.5" width="461" height="230" stroke="#000000" stroke-width="6.875" stroke-linecap="butt" stroke-linejoin="miter" stroke-miterlimit="8" stroke-opacity="1" fill="#2E676B" fill-opacity="1"/><text fill="#FFFFFF" fill-opacity="1" font-family="PingFang HK,PingFang HK_MSFontService,sans-serif" font-style="normal" font-variant="normal" font-weight="400" font-stretch="normal" font-size="83" text-anchor="start" direction="ltr" writing-mode="lr-tb" unicode-bidi="normal" text-decoration="none" transform="matrix(1 0 0 1 4004.32 1267)">请求授权</text><path d="M0-3.4375 309.774-3.4375 309.774 579.674 302.899 579.674 302.899 0 306.336 3.4375 0 3.4375ZM320.086 575.091 306.336 602.591 292.586 575.091Z" fill="#000000" fill-rule="nonzero" fill-opacity="1" transform="matrix(1.83697e-16 1 1 -1.83697e-16 952.5 1412.5)"/><text fill="#000000" fill-opacity="1" font-family="PingFang HK,PingFang HK_MSFontService,sans-serif" font-style="normal" font-variant="normal" font-weight="400" font-stretch="normal" font-size="83" text-anchor="start" direction="ltr" writing-mode="lr-tb" unicode-bidi="normal" text-decoration="none" transform="matrix(1 0 0 1 835.317 1590)">否</text><path d="M1798.94 1412.5 1798.94 1580.8 1792.06 1580.8 1792.06 1412.5ZM1809.25 1576.22 1795.5 1603.72 1781.75 1576.22Z" fill="#000000" fill-rule="nonzero" fill-opacity="1"/><text fill="#000000" fill-opacity="1" font-family="PingFang HK,PingFang HK_MSFontService,sans-serif" font-style="normal" font-variant="normal" font-weight="400" font-stretch="normal" font-size="83" text-anchor="start" direction="ltr" writing-mode="lr-tb" unicode-bidi="normal" text-decoration="none" transform="matrix(1 0 0 1 1662.83 1523)">是</text><path d="M2670.94 1412.5 2670.94 1580.8 2664.06 1580.8 2664.06 1412.5ZM2681.25 1576.22 2667.5 1603.72 2653.75 1576.22Z" fill="#000000" fill-rule="nonzero" fill-opacity="1"/><text fill="#000000" fill-opacity="1" font-family="PingFang HK,PingFang HK_MSFontService,sans-serif" font-style="normal" font-variant="normal" font-weight="400" font-stretch="normal" font-size="83" text-anchor="start" direction="ltr" writing-mode="lr-tb" unicode-bidi="normal" text-decoration="none" transform="matrix(1 0 0 1 2535.5 1523)">是</text><path d="M3469 1412.5 3469 1896.86 1792.06 1896.86 1792.06 1856.87 1798.94 1856.87 1798.94 1893.43 1795.5 1889.99 3465.56 1889.99 3462.12 1893.43 3462.12 1412.5ZM1781.75 1861.45 1795.5 1833.95 1809.25 1861.45Z" fill="#000000" fill-rule="nonzero" fill-opacity="1"/><text fill="#000000" fill-opacity="1" font-family="PingFang HK,PingFang HK_MSFontService,sans-serif" font-style="normal" font-variant="normal" font-weight="400" font-stretch="normal" font-size="83" text-anchor="start" direction="ltr" writing-mode="lr-tb" unicode-bidi="normal" text-decoration="none" transform="matrix(1 0 0 1 3330.78 1533)">是</text><path d="M0 3.4375-1.83318 3.4375 1.60432 0 1.60432 558.633-1.83318 555.195 2208.51 555.195 2205.07 558.633 2205.07 499.049 2211.94 499.049 2211.94 562.07-5.27068 562.07-5.27068-3.4375 0-3.4375ZM2194.76 503.632 2208.51 476.132 2222.26 503.632Z" fill="#000000" fill-rule="nonzero" fill-opacity="1" transform="matrix(-1 1.22465e-16 1.22465e-16 1 4004.01 1357.5)"/><text fill="#000000" fill-opacity="1" font-family="PingFang HK,PingFang HK_MSFontService,sans-serif" font-style="normal" font-variant="normal" font-weight="400" font-stretch="normal" font-size="83" text-anchor="start" direction="ltr" writing-mode="lr-tb" unicode-bidi="normal" text-decoration="none" transform="matrix(1 0 0 1 3890.2 1474)">用</text><text fill="#000000" fill-opacity="1" font-family="PingFang HK,PingFang HK_MSFontService,sans-serif" font-style="normal" font-variant="normal" font-weight="400" font-stretch="normal" font-size="83" text-anchor="start" direction="ltr" writing-mode="lr-tb" unicode-bidi="normal" text-decoration="none" transform="matrix(1 0 0 1 3890.2 1573)">户</text><text fill="#000000" fill-opacity="1" font-family="PingFang HK,PingFang HK_MSFontService,sans-serif" font-style="normal" font-variant="normal" font-weight="400" font-stretch="normal" font-size="83" text-anchor="start" direction="ltr" writing-mode="lr-tb" unicode-bidi="normal" text-decoration="none" transform="matrix(1 0 0 1 3890.2 1672)">拒</text><text fill="#000000" fill-opacity="1" font-family="PingFang HK,PingFang HK_MSFontService,sans-serif" font-style="normal" font-variant="normal" font-weight="400" font-stretch="normal" font-size="83" text-anchor="start" direction="ltr" writing-mode="lr-tb" unicode-bidi="normal" text-decoration="none" transform="matrix(1 0 0 1 3890.2 1771)">绝</text><path d="M0 3.4375-0.168182 3.4375 3.26932 0 3.26932 599.88-0.168182 596.442 1689.95 596.442 1686.51 599.88 1686.51 498.089 1693.39 498.089 1693.39 603.317-3.60568 603.317-3.60568-3.4375 0-3.4375ZM1676.2 502.672 1689.95 475.172 1703.7 502.672Z" fill="#000000" fill-rule="nonzero" fill-opacity="1" transform="matrix(-1 1.22465e-16 1.22465e-16 1 4357.45 1358.5)"/><text fill="#000000" fill-opacity="1" font-family="PingFang HK,PingFang HK_MSFontService,sans-serif" font-style="normal" font-variant="normal" font-weight="400" font-stretch="normal" font-size="83" text-anchor="start" direction="ltr" writing-mode="lr-tb" unicode-bidi="normal" text-decoration="none" transform="matrix(1 0 0 1 4240.35 1474)">用</text><text fill="#000000" fill-opacity="1" font-family="PingFang HK,PingFang HK_MSFontService,sans-serif" font-style="normal" font-variant="normal" font-weight="400" font-stretch="normal" font-size="83" text-anchor="start" direction="ltr" writing-mode="lr-tb" unicode-bidi="normal" text-decoration="none" transform="matrix(1 0 0 1 4240.35 1573)">户</text><text fill="#000000" fill-opacity="1" font-family="PingFang HK,PingFang HK_MSFontService,sans-serif" font-style="normal" font-variant="normal" font-weight="400" font-stretch="normal" font-size="83" text-anchor="start" direction="ltr" writing-mode="lr-tb" unicode-bidi="normal" text-decoration="none" transform="matrix(1 0 0 1 4240.35 1672)">同</text><text fill="#000000" fill-opacity="1" font-family="PingFang HK,PingFang HK_MSFontService,sans-serif" font-style="normal" font-variant="normal" font-weight="400" font-stretch="normal" font-size="83" text-anchor="start" direction="ltr" writing-mode="lr-tb" unicode-bidi="normal" text-decoration="none" transform="matrix(1 0 0 1 4240.35 1771)">意</text><path d="M2907.5 1812.06 4469.77 1812.06 4469.77 1818.94 2907.5 1818.94ZM4465.19 1801.75 4492.69 1815.5 4465.19 1829.25Z" fill="#000000" fill-rule="nonzero" fill-opacity="1"/><rect x="4492.5" y="1700.5" width="620" height="231" stroke="#000000" stroke-width="6.875" stroke-linecap="butt" stroke-linejoin="miter" stroke-miterlimit="8" stroke-opacity="1" fill="#2E676B" fill-opacity="1"/><text fill="#FFFFFF" fill-opacity="1" font-family="PingFang HK,PingFang HK_MSFontService,sans-serif" font-style="normal" font-variant="normal" font-weight="400" font-stretch="normal" font-size="83" text-anchor="start" direction="ltr" writing-mode="lr-tb" unicode-bidi="normal" text-decoration="none" transform="matrix(1 0 0 1 4554.78 1841)">运行用户服务</text><rect x="5247.5" y="1702.5" width="462" height="230" stroke="#000000" stroke-width="6.875" stroke-linecap="butt" stroke-linejoin="miter" stroke-miterlimit="8" stroke-opacity="1" fill="#2E676B" fill-opacity="1"/><text fill="#FFFFFF" fill-opacity="1" font-family="PingFang HK,PingFang HK_MSFontService,sans-serif" font-style="normal" font-variant="normal" font-weight="400" font-stretch="normal" font-size="83" text-anchor="start" direction="ltr" writing-mode="lr-tb" unicode-bidi="normal" text-decoration="none" transform="matrix(1 0 0 1 5312.95 1842)">进程死亡</text><path d="M5112.53 1812.06 5224.68 1813.15 5224.62 1820.03 5112.47 1818.94ZM5220.2 1802.79 5247.57 1816.81 5219.93 1830.29Z" fill="#000000" fill-rule="nonzero" fill-opacity="1"/><text fill="#000000" fill-opacity="1" font-family="PingFang HK,PingFang HK_MSFontService,sans-serif" font-style="normal" font-variant="normal" font-weight="400" font-stretch="normal" font-size="83" text-anchor="start" direction="ltr" writing-mode="lr-tb" unicode-bidi="normal" text-decoration="none" transform="matrix(1 0 0 1 5341.76 1063)">生命周期</text></g></g></svg>